<?xml version="1.0" encoding="UTF-8" standalone="no"?>
<!-- Created with Inkscape (http://www.inkscape.org/) -->

<svg
   width="32mm"
   height="32mm"
   viewBox="0 0 32 32"
   version="1.1"
   id="svg1"
   inkscape:version="1.3.1 (91b66b0783, 2023-11-16)"
   sodipodi:docname="bd_o.svg"
   xml:space="preserve"
   xmlns:inkscape="http://www.inkscape.org/namespaces/inkscape"
   xmlns:sodipodi="http://sodipodi.sourceforge.net/DTD/sodipodi-0.dtd"
   xmlns="http://www.w3.org/2000/svg"
   xmlns:svg="http://www.w3.org/2000/svg"><sodipodi:namedview
     id="namedview1"
     pagecolor="#ffffff"
     bordercolor="#000000"
     borderopacity="0.25"
     inkscape:showpageshadow="2"
     inkscape:pageopacity="0.0"
     inkscape:pagecheckerboard="0"
     inkscape:deskcolor="#d1d1d1"
     inkscape:document-units="mm"
     inkscape:zoom="2.7794613"
     inkscape:cx="71.776499"
     inkscape:cy="64.041187"
     inkscape:window-width="1488"
     inkscape:window-height="958"
     inkscape:window-x="408"
     inkscape:window-y="2"
     inkscape:window-maximized="0"
     inkscape:current-layer="layer1"
     showguides="true" /><defs
     id="defs1" /><g
     inkscape:label="Слой 1"
     inkscape:groupmode="layer"
     id="layer1"><g
       id="g1"><path
         style="fill:#df601c;fill-opacity:1;stroke:none;stroke-width:3.59887;stroke-dasharray:none"
         d="m 6.5872028,4.4109445 c 5.7252142,-4.13099552 13.6312562,-4.1736733 19.0490762,0 2.726044,2.7017199 2.272229,5.1721777 0,7.5103865 -5.935619,4.476532 -13.839445,3.852957 -18.980801,0 C 4.4335447,9.657779 3.8171517,7.2190771 6.5872028,4.4109445 Z"
         id="path11-71-4"
         sodipodi:nodetypes="ccccc" /><path
         style="fill:#df601c;fill-opacity:1;stroke:none;stroke-width:3.59887;stroke-dasharray:none"
         d="m 4.6695654,10.877954 c 2.3569285,9.493186 21.5321006,8.193957 22.9049766,0.107747 l 0.01098,5.814381 c -1.170046,3.692421 -5.77343,6.161244 -11.434694,6.184558 -5.661264,0.02332 -10.5353241,-2.513128 -11.4420247,-6.29425 z"
         id="path10-5-1-3"
         sodipodi:nodetypes="ccczcc" /><path
         style="fill:#df601c;fill-opacity:1;stroke:none;stroke-width:3.59887;stroke-dasharray:none"
         d="m 4.6695651,18.714862 c 2.3569284,9.493186 21.5321029,8.193958 22.9049789,0.107747 l 0.01098,5.814381 c -1.170046,3.692421 -5.77343,6.161244 -11.434696,6.184558 C 10.489564,30.844863 5.6155035,28.30842 4.7088029,24.527299 Z"
         id="path10-5-6-2"
         sodipodi:nodetypes="ccczcc" /></g></g></svg>
