<?xml version="1.0" encoding="UTF-8" standalone="no"?>
<!-- Created with Inkscape (http://www.inkscape.org/) -->

<svg
   width="24"
   height="24"
   viewBox="0 0 6.3500001 6.3500001"
   version="1.1"
   id="svg1"
   inkscape:version="1.3.1 (91b66b0783, 2023-11-16)"
   sodipodi:docname="dep_deprotec_mini.svg"
   xml:space="preserve"
   xmlns:inkscape="http://www.inkscape.org/namespaces/inkscape"
   xmlns:sodipodi="http://sodipodi.sourceforge.net/DTD/sodipodi-0.dtd"
   xmlns="http://www.w3.org/2000/svg"
   xmlns:svg="http://www.w3.org/2000/svg"><sodipodi:namedview
     id="namedview1"
     pagecolor="#ffffff"
     bordercolor="#000000"
     borderopacity="0.25"
     inkscape:showpageshadow="2"
     inkscape:pageopacity="0.0"
     inkscape:pagecheckerboard="0"
     inkscape:deskcolor="#d1d1d1"
     inkscape:document-units="mm"
     inkscape:zoom="11.117845"
     inkscape:cx="8.3649303"
     inkscape:cy="20.957298"
     inkscape:window-width="1920"
     inkscape:window-height="976"
     inkscape:window-x="-8"
     inkscape:window-y="-8"
     inkscape:window-maximized="1"
     inkscape:current-layer="layer1"
     showguides="true" /><defs
     id="defs1" /><g
     inkscape:label="Слой 1"
     inkscape:groupmode="layer"
     id="layer1"><path
       id="rect1060-4-3-7"
       style="fill:#df601c;fill-opacity:1;stroke:none;stroke-width:0.213382;stroke-linecap:round;stroke-linejoin:round;stroke-miterlimit:4;stroke-dasharray:none;stroke-dashoffset:0;stroke-opacity:1;paint-order:normal"
       d="m 1.4737317,0.31749003 c -0.64570852,0 -1.16554908,0.51984053 -1.16554908,1.16554897 v 3.4966193 c 0,0.6457086 0.51984056,1.1655493 1.16554908,1.1655493 h 3.4181894 c 0.6457086,0 1.165522,-0.5198407 1.165522,-1.1655493 V 1.483039 c 0,-0.64570844 -0.5198134,-1.16554897 -1.165522,-1.16554897 z m 0.071608,0.1892405 h 3.2749458 c 0.5747811,0 1.0375206,0.4627396 1.0375206,1.03752037 v 3.3741956 c 0,0.5747808 -0.4627395,1.0375206 -1.0375206,1.0375206 H 1.5453399 c -0.57478104,0 -1.03752059,-0.4627398 -1.03752059,-1.0375206 V 1.5442509 c 0,-0.57478077 0.46273955,-1.03752037 1.03752039,-1.03752037 z" /><path
       id="rect99"
       style="fill:#547586;fill-opacity:1;stroke:none;stroke-width:0.919414"
       d="M 1.3116847,0.70863512 C 1.0236089,0.71326294 0.78203018,0.96346226 0.78419832,1.2726599 v 3.872051 C 0.78285112,5.4742207 0.97163416,5.6955975 1.3116847,5.6955182 H 5.1164468 C 5.3875613,5.7010197 5.583726,5.452122 5.5863881,5.1447109 V 1.2726599 C 5.5804736,0.92569983 5.3348502,0.71399787 5.0589019,0.70863512 Z M 0.96141046,1.2792266 C 0.95561866,1.1461991 1.0947458,0.89995659 1.2719399,0.90292443 l 3.8025351,-0.002965 c 0.1632872,2.79e-5 0.3051793,0.19170277 0.3030239,0.31778227 l 0.0042,3.9709563 C 5.3810275,5.3649812 5.2346481,5.5251215 5.0828714,5.5240724 l -3.8175728,0.0084 c -0.1493617,0 -0.30141234,-0.2112069 -0.30388594,-0.360417 z"
       sodipodi:nodetypes="cccccccccccccccccc" /><rect
       style="fill:#547586;fill-opacity:1;stroke:none;stroke-width:1.05194"
       id="rect106"
       width="2.723361"
       height="1.2441242"
       x="1.1360246"
       y="1.0937898" /><rect
       style="fill:#df601c;fill-opacity:1;stroke:none;stroke-width:0.415794"
       id="rect106-4"
       width="1.0954319"
       height="0.48323777"
       x="4.1254201"
       y="1.0976253" /><rect
       style="fill:#df601c;fill-opacity:1;stroke:none;stroke-width:0.415794"
       id="rect106-4-9"
       width="1.0954319"
       height="0.48323777"
       x="4.1254201"
       y="1.8478262" /><rect
       style="fill:#df601c;fill-opacity:1;stroke:none;stroke-width:0.415794"
       id="rect106-4-90"
       width="1.0954319"
       height="0.48323777"
       x="4.1254201"
       y="2.5980275" /><rect
       style="fill:#df601c;fill-opacity:1;stroke:none;stroke-width:0.415794"
       id="rect106-4-1"
       width="1.0954319"
       height="0.48323777"
       x="4.1254201"
       y="3.3482285" /><rect
       style="fill:#547586;fill-opacity:1;stroke:none;stroke-width:0.415794"
       id="rect106-4-2"
       width="1.0954319"
       height="0.48323777"
       x="4.1254201"
       y="4.0984292" /><rect
       style="fill:#df601c;fill-opacity:1;stroke:none;stroke-width:0.415794"
       id="rect106-4-19"
       width="1.0954319"
       height="0.48323777"
       x="4.1254201"
       y="4.8486304" /><rect
       style="fill:#df601c;fill-opacity:1;stroke:none;stroke-width:0.287701"
       id="rect106-4-8-0"
       width="0.52445948"
       height="0.48323777"
       x="3.329536"
       y="3.3859024" /><rect
       style="fill:#df601c;fill-opacity:1;stroke:none;stroke-width:0.287701"
       id="rect106-4-8-0-0"
       width="0.52445948"
       height="0.48323777"
       x="1.9553548"
       y="3.3859024" /><rect
       style="fill:#547586;fill-opacity:1;stroke:none;stroke-width:0.287701"
       id="rect106-4-8-0-50"
       width="0.52445948"
       height="0.48323777"
       x="1.1360246"
       y="2.6078568" /><rect
       style="fill:#df601c;fill-opacity:1;stroke:none;stroke-width:0.287701"
       id="rect106-4-8-0-5"
       width="0.52445948"
       height="0.48323777"
       x="2.6424456"
       y="3.3859024" /><rect
       style="fill:#df601c;fill-opacity:1;stroke:none;stroke-width:0.287701"
       id="rect106-4-8-0-8"
       width="0.52445948"
       height="0.48323777"
       x="3.3337331"
       y="4.1675434" /><rect
       style="fill:#df601c;fill-opacity:1;stroke:none;stroke-width:0.287701"
       id="rect106-4-8-0-0-6"
       width="0.52445948"
       height="0.48323777"
       x="1.9595522"
       y="4.1675434" /><rect
       style="fill:#547586;fill-opacity:1;stroke:none;stroke-width:0.287701"
       id="rect106-4-8-0-50-9"
       width="0.52445948"
       height="0.48323777"
       x="1.1360246"
       y="3.3610377" /><rect
       style="fill:#547586;fill-opacity:1;stroke:none;stroke-width:0.287701"
       id="rect106-4-8-0-50-0"
       width="0.52445948"
       height="0.48323777"
       x="1.1360246"
       y="4.1142187" /><rect
       style="fill:#547586;fill-opacity:1;stroke:none;stroke-width:0.287701"
       id="rect106-4-8-0-50-9-3"
       width="0.52445948"
       height="0.48323777"
       x="1.1360246"
       y="4.8673992" /><rect
       style="fill:#547586;fill-opacity:1;stroke:none;stroke-width:0.287701"
       id="rect106-4-8-0-50-9-3-2"
       width="0.52445948"
       height="0.48323777"
       x="2.640707"
       y="4.8745923" /><rect
       style="fill:#df601c;fill-opacity:1;stroke:none;stroke-width:0.287701"
       id="rect106-4-8-0-5-7"
       width="0.52445948"
       height="0.48323777"
       x="2.6466424"
       y="4.1675434" /></g></svg>
