<?xml version="1.0" encoding="UTF-8" standalone="no"?>
<!-- Created with Inkscape (http://www.inkscape.org/) -->

<svg
   width="200mm"
   height="200mm"
   viewBox="0 0 200 200"
   version="1.1"
   id="svg1"
   inkscape:version="1.3.1 (91b66b0783, 2023-11-16)"
   sodipodi:docname="image_save.svg"
   xml:space="preserve"
   xmlns:inkscape="http://www.inkscape.org/namespaces/inkscape"
   xmlns:sodipodi="http://sodipodi.sourceforge.net/DTD/sodipodi-0.dtd"
   xmlns="http://www.w3.org/2000/svg"
   xmlns:svg="http://www.w3.org/2000/svg"><sodipodi:namedview
     id="namedview1"
     pagecolor="#ffffff"
     bordercolor="#000000"
     borderopacity="0.25"
     inkscape:showpageshadow="2"
     inkscape:pageopacity="0.0"
     inkscape:pagecheckerboard="0"
     inkscape:deskcolor="#d1d1d1"
     inkscape:document-units="mm"
     inkscape:zoom="0.49134398"
     inkscape:cx="886.34443"
     inkscape:cy="632.95779"
     inkscape:window-width="1488"
     inkscape:window-height="964"
     inkscape:window-x="318"
     inkscape:window-y="2"
     inkscape:window-maximized="0"
     inkscape:current-layer="layer1"
     showguides="true" /><defs
     id="defs1" /><g
     inkscape:label="Слой 1"
     inkscape:groupmode="layer"
     id="layer1"><g
       id="g56-64-78-0"
       transform="matrix(1.4361888,0,0,1.4361888,-738.93429,2244.4891)"><path
         style="fill:#df601c;fill-opacity:1;stroke:none;stroke-width:0.193;stroke-dasharray:none;stroke-dashoffset:20.512;stroke-opacity:1"
         d="m 541.38153,-1427.8508 0.49998,-100.181 -19.35105,-26.5459 v 75.5709 z"
         id="path47-1-5-2-61-2"
         sodipodi:nodetypes="ccccc" /><path
         style="fill:#547586;fill-opacity:1;stroke:none;stroke-width:0.193;stroke-dasharray:none;stroke-dashoffset:20.512;stroke-opacity:1"
         d="m 522.38476,-1557.316 83.01844,0.1 37.51207,27.8316 H 542.9399 Z"
         id="path48-0-9-7-4-0"
         sodipodi:nodetypes="ccccc" /><path
         style="fill:#ffffff;fill-opacity:1;stroke:none;stroke-width:0.177347;stroke-dasharray:none;stroke-dashoffset:20.512;stroke-opacity:1"
         d="m 543.74824,-1436.2744 -9e-5,-91.1254 h 92.61401 l 4e-5,91.1254 z"
         id="path49-7-4-83-2-2" /><g
         id="g55-8-26-19-0"
         transform="translate(-312.4829,-1575.1588)"><g
           id="g54-8-1-6-7"><path
             style="fill:#476371;fill-opacity:1;stroke:none;stroke-width:0.193;stroke-dasharray:none;stroke-dashoffset:20.512;stroke-opacity:1"
             d="M 955.39817,146.808 H 855.03845 l 0.45592,-5.93887 h 94.15903 z"
             id="path53-7-85-9-4" /></g><path
           style="fill:#c95719;fill-opacity:1;stroke:none;stroke-width:0.193;stroke-dasharray:none;stroke-dashoffset:20.512;stroke-opacity:1"
           d="m 950.71174,47.004411 5.66477,-0.03351 0.08,98.778758 -5.74477,-5.93887 z"
           id="path54-0-64-63-3"
           sodipodi:nodetypes="ccccc" /></g></g><path
       inkscape:connector-curvature="0"
       id="path4729-8-3-2-0-6"
       d="m 128.36858,59.427962 c 0.22063,0.108593 -3.26106,3.868357 -8.73717,9.435255 l -9.11172,9.262541 57.06525,56.135842 -41.55475,42.24287 -57.143895,-56.06045 -8.404051,8.54313 -8.404591,8.54347 -0.14473,-5.07462 c -0.226068,-8.26587 -1.128504,-58.244172 -1.189992,-65.811446 -0.03614,-3.838876 0.07228,-7.087456 0.18085,-7.218942 0.14473,-0.14473 5.301222,-0.226067 11.492223,-0.20798 6.190461,0.01602 23.477448,0.03614 38.414836,0.03614 14.93721,0 27.32682,0.09043 27.53298,0.18085 z"
       style="fill:#547586;fill-opacity:1;stroke-width:0.418"
       sodipodi:nodetypes="ssccccccsssssss" /></g></svg>
