<?xml version="1.0" encoding="UTF-8" standalone="no"?>
<!-- Created with Inkscape (http://www.inkscape.org/) -->

<svg
   width="200mm"
   height="200mm"
   viewBox="0 0 200 200"
   version="1.1"
   id="svg1"
   inkscape:version="1.3.1 (91b66b0783, 2023-11-16)"
   sodipodi:docname="image_del.svg"
   xml:space="preserve"
   xmlns:inkscape="http://www.inkscape.org/namespaces/inkscape"
   xmlns:sodipodi="http://sodipodi.sourceforge.net/DTD/sodipodi-0.dtd"
   xmlns="http://www.w3.org/2000/svg"
   xmlns:svg="http://www.w3.org/2000/svg"><sodipodi:namedview
     id="namedview1"
     pagecolor="#ffffff"
     bordercolor="#000000"
     borderopacity="0.25"
     inkscape:showpageshadow="2"
     inkscape:pageopacity="0.0"
     inkscape:pagecheckerboard="0"
     inkscape:deskcolor="#d1d1d1"
     inkscape:document-units="mm"
     inkscape:zoom="0.49134398"
     inkscape:cx="450.80434"
     inkscape:cy="405.01158"
     inkscape:window-width="1488"
     inkscape:window-height="964"
     inkscape:window-x="318"
     inkscape:window-y="2"
     inkscape:window-maximized="0"
     inkscape:current-layer="layer1"
     showguides="true" /><defs
     id="defs1" /><g
     inkscape:label="Слой 1"
     inkscape:groupmode="layer"
     id="layer1"><g
       id="g56-64-78-0"
       transform="matrix(1.4361888,0,0,1.4361888,-738.93429,2244.4891)"><path
         style="fill:#df601c;fill-opacity:1;stroke:none;stroke-width:0.193;stroke-dasharray:none;stroke-dashoffset:20.512;stroke-opacity:1"
         d="m 541.38153,-1427.8508 0.49998,-100.181 -19.35105,-26.5459 v 75.5709 z"
         id="path47-1-5-2-61-2"
         sodipodi:nodetypes="ccccc" /><path
         style="fill:#547586;fill-opacity:1;stroke:none;stroke-width:0.193;stroke-dasharray:none;stroke-dashoffset:20.512;stroke-opacity:1"
         d="m 522.38476,-1557.316 83.01844,0.1 37.51207,27.8316 H 542.9399 Z"
         id="path48-0-9-7-4-0"
         sodipodi:nodetypes="ccccc" /><path
         style="fill:#ffffff;fill-opacity:1;stroke:none;stroke-width:0.177347;stroke-dasharray:none;stroke-dashoffset:20.512;stroke-opacity:1"
         d="m 543.74824,-1436.2744 -9e-5,-91.1254 h 92.61401 l 4e-5,91.1254 z"
         id="path49-7-4-83-2-2" /><g
         id="g55-8-26-19-0"
         transform="translate(-312.4829,-1575.1588)"><g
           id="g54-8-1-6-7"><path
             style="fill:#476371;fill-opacity:1;stroke:none;stroke-width:0.193;stroke-dasharray:none;stroke-dashoffset:20.512;stroke-opacity:1"
             d="M 955.39817,146.808 H 855.03845 l 0.45592,-5.93887 h 94.15903 z"
             id="path53-7-85-9-4" /></g><path
           style="fill:#c95719;fill-opacity:1;stroke:none;stroke-width:0.193;stroke-dasharray:none;stroke-dashoffset:20.512;stroke-opacity:1"
           d="m 950.71174,47.004411 5.66477,-0.03351 0.08,98.778758 -5.74477,-5.93887 z"
           id="path54-0-64-63-3"
           sodipodi:nodetypes="ccccc" /></g></g><path
       id="path61-9-7-6-2"
       style="fill:#df601c;fill-opacity:1;stroke:none;stroke-width:10.8531"
       d="m 108.92631,59.843797 a 57.690003,57.690003 0 0 0 -57.690233,57.690083 57.690003,57.690003 0 0 0 57.690233,57.69007 57.690003,57.690003 0 0 0 57.68992,-57.69007 57.690003,57.690003 0 0 0 -57.68992,-57.690083 z m 28.36464,18.179668 10.7042,10.566278 -28.39516,28.796027 28.99566,28.62208 -10.56628,10.70403 -28.84594,-28.66374 -28.622059,28.99598 -10.70405,-10.56628 28.622234,-28.99565 -29.222884,-28.422453 10.56595,-10.704035 28.846249,28.663568 z" /></g></svg>
